<?xml version="1.0" encoding="iso-8859-1"?>
<!-- Generator: Adobe Illustrator 19.0.0, SVG Export Plug-In . SVG Version: 6.00 Build 0)  -->
<svg version="1.1" id="Capa_1" xmlns="http://www.w3.org/2000/svg" xmlns:xlink="http://www.w3.org/1999/xlink" x="0px" y="0px"
	 viewBox="0 0 496.485 496.485" style="enable-background:new 0 0 496.485 496.485;" xml:space="preserve">
<circle style="fill:#F16051;" cx="248.242" cy="248.242" r="248.242"/>
<path style="fill:#FFFFFF;" d="M463.903,138.861c-1.552,0-3.103,0-4.655,0.776c-3.103-5.43-9.309-9.309-16.291-9.309
	c-2.327,0-4.655,0.776-6.206,0.776c-2.327-8.533-9.309-13.964-18.618-13.964c-10.861,0-19.394,8.533-19.394,19.394
	c0,0.776,0,1.552,0,3.103c-0.776,0-1.552,0-1.552,0c-10.861,0-19.394,8.533-19.394,19.394c0,10.861,8.533,19.394,19.394,19.394
	h67.491c10.861,0,19.394-8.533,19.394-19.394C482.521,147.394,473.988,138.861,463.903,138.861z"/>
<path style="fill:#193651;" d="M463.903,184.63h-67.491c-14.739,0-27.151-12.412-27.151-27.152c0-13.188,9.309-24.048,20.945-26.376
	c2.327-12.412,13.188-22.497,26.376-22.497c9.309,0,18.618,5.43,23.273,13.188c7.758-0.776,16.291,3.103,21.721,8.533
	c15.515-0.776,28.703,11.636,28.703,27.152S478.642,184.63,463.903,184.63z M396.412,146.618c-6.206,0-11.636,5.43-11.636,11.636
	s5.43,11.636,11.636,11.636h67.491c6.206,0,11.636-5.43,11.636-11.636c0-6.982-6.982-13.188-13.964-10.861
	c-3.103,0.776-6.982-0.776-8.533-3.879c-3.103-4.655-8.533-6.982-13.964-4.655c-2.327,0.776-4.655,0.776-6.206-0.776
	c-1.552-0.776-3.103-3.103-3.879-4.655c-1.552-4.655-6.206-8.533-10.861-8.533c-6.206,0-11.636,5.43-11.636,11.636
	c0,0.776,0,0.776,0,1.552c0,2.327-0.776,4.655-2.327,6.206c-1.552,1.552-3.879,2.327-6.206,2.327
	C397.188,146.618,396.412,146.618,396.412,146.618z"/>
<path style="fill:#FFFFFF;" d="M242.812,131.879c-1.552,0-3.103,0-4.655,0.776c-3.103-5.43-9.309-9.309-16.291-9.309
	c-2.327,0-4.655,0.776-6.206,0.776c-2.327-8.533-9.309-13.964-18.618-13.964c-10.861,0-19.394,8.533-19.394,19.394
	c0,0.776,0,1.552,0,3.103c-0.776,0-1.552,0-1.552,0c-10.861,0-19.394,8.533-19.394,19.394c0,10.861,8.533,19.394,19.394,19.394
	h67.491c10.861,0,19.394-8.533,19.394-19.394C261.43,140.412,252.897,131.879,242.812,131.879z"/>
<path style="fill:#193651;" d="M242.812,177.648h-67.491c-14.739,0-27.152-12.412-27.152-27.152
	c0-13.188,9.309-24.048,20.945-26.376c2.327-12.412,13.188-22.497,26.376-22.497c9.309,0,18.618,5.43,23.273,13.188
	c8.533-0.776,16.291,3.103,21.721,8.533c15.515-0.776,28.703,11.636,28.703,27.152C269.188,165.236,257.552,177.648,242.812,177.648
	z M175.321,139.636c-6.206,0-11.636,5.43-11.636,11.636s5.43,11.636,11.636,11.636h67.491c6.206,0,11.636-5.43,11.636-11.636
	c0-6.982-6.206-13.188-14.739-10.861c-3.103,0.776-6.982-0.776-8.533-3.879c-3.103-4.655-8.533-6.982-13.964-4.655
	c-2.327,0.776-4.655,0.776-6.206-0.776c-1.552-0.776-3.103-3.103-3.879-4.655c-1.552-4.655-6.206-8.533-10.861-8.533
	c-6.206,0-11.636,5.43-11.636,11.636c0,0.776,0,0.776,0,1.552c0,2.327-0.776,4.655-2.327,6.206
	c-1.552,1.552-3.879,2.327-6.206,2.327H175.321z"/>
<polygon style="fill:#FDBF5E;" points="314.958,238.933 339.006,270.739 369.261,228.073 314.958,122.57 261.43,228.073 
	291.685,270.739 "/>
<path style="fill:#193651;" d="M339.006,278.497c-2.327,0-4.655-0.776-6.206-3.103l-17.067-23.273l-17.067,23.273
	c-1.552,2.327-3.879,3.103-6.206,3.103s-4.655-1.552-6.206-3.103l-31.03-42.667c-1.552-2.327-1.552-5.43-0.776-7.758l53.527-105.503
	c2.327-5.43,10.861-5.43,13.964,0l54.303,105.503c1.552,2.327,0.776,5.43-0.776,7.758l-30.255,42.667
	C343.661,276.945,341.333,278.497,339.006,278.497L339.006,278.497z M270.739,227.297l20.945,30.255l17.067-23.273
	c3.103-3.879,9.309-3.879,12.412,0l17.067,23.273l20.945-30.255l-44.218-87.661L270.739,227.297z"/>
<polygon style="fill:#FFFFFF;" points="481.745,481.745 369.261,228.073 339.006,270.739 314.958,238.933 291.685,270.739 
	261.43,228.073 148.945,481.745 "/>
<path style="fill:#193651;" d="M481.745,489.503H148.17c-2.327,0-5.43-1.552-6.206-3.879c-1.552-2.327-1.552-4.655-0.776-7.758
	L254.448,224.97c0.776-2.327,3.879-4.655,6.206-4.655c3.103,0,5.43,0.776,6.982,3.103l24.048,34.133l17.067-23.273
	c3.103-3.879,9.309-3.879,12.412,0l17.067,23.273l24.048-34.133c1.552-2.327,3.879-3.103,6.982-3.103
	c3.103,0,5.43,2.327,6.206,4.655l113.261,253.673c0.776,2.327,0.776,5.43-0.776,7.758
	C487.176,488.727,484.849,489.503,481.745,489.503z M160.582,473.988h309.527l-102.4-230.4l-22.497,31.03
	c-1.552,2.327-3.879,3.103-6.206,3.103s-4.655-0.776-6.206-3.103l-17.067-23.273l-17.067,23.273
	c-1.552,2.327-3.879,3.103-6.206,3.103s-4.655-1.552-6.206-3.103l-22.497-31.03L160.582,473.988z"/>
<polygon style="fill:#E1E6E9;" points="194.715,451.491 267.636,288.582 290.909,321.939 314.958,289.358 339.782,321.939 
	363.055,288.582 435.2,451.491 "/>
<polygon style="fill:#FFFFFF;" points="141.964,324.267 102.4,284.703 14.739,481.745 269.964,481.745 182.303,284.703 "/>
<path style="fill:#193651;" d="M269.964,489.503L269.964,489.503H14.739c-2.327,0-5.43-1.552-6.206-3.879
	c-1.552-2.327-1.552-4.655-0.776-7.758l87.661-197.042c0.776-2.327,3.103-3.879,5.43-4.655c2.327-0.776,5.43,0,6.982,2.327
	l34.133,34.133l34.133-34.133c1.552-1.552,4.655-2.327,6.982-2.327c2.327,0.776,4.655,2.327,5.43,4.655l86.885,196.267
	c0.776,1.552,1.552,3.103,1.552,4.655C277.721,486.4,274.618,489.503,269.964,489.503z M26.376,473.988h231.176L179.2,297.891
	l-31.806,31.806c-3.103,3.103-7.758,3.103-10.861,0l-31.806-31.806L26.376,473.988z"/>
<polygon style="fill:#E1E6E9;" points="61.285,451.491 112.485,336.679 141.964,366.933 172.218,336.679 223.418,451.491 "/>
<polygon style="fill:#FDBF5E;" points="182.303,284.703 141.964,195.491 102.4,284.703 141.964,324.267 "/>
<g>
	<path style="fill:#193651;" d="M141.964,332.024c-2.327,0-3.879-0.776-5.43-2.327L96.97,290.133
		c-2.327-2.327-3.103-5.43-1.552-8.533l39.564-89.212c1.552-3.103,3.879-4.655,6.982-4.655s6.206,1.552,6.982,4.655l39.564,89.212
		c1.552,3.103,0.776,6.206-1.552,8.533l-39.564,39.564C145.842,331.249,144.291,332.024,141.964,332.024z M111.709,283.152
		l30.255,30.255l30.255-30.255l-30.255-68.267L111.709,283.152z"/>
	<path style="fill:#193651;" d="M314.958,130.327c-4.655,0-7.758-3.103-7.758-7.758V14.739c0-4.655,3.103-7.758,7.758-7.758
		s7.758,3.103,7.758,7.758v107.83C322.715,127.224,319.612,130.327,314.958,130.327z"/>
</g>
<polygon style="fill:#2EA2DB;" points="314.958,14.739 314.958,102.4 432.097,58.182 "/>
<path style="fill:#193651;" d="M314.958,110.158c-1.552,0-3.103-0.776-4.655-1.552c-2.327-1.552-3.103-3.879-3.103-6.206V14.739
	c0-2.327,1.552-4.655,3.103-6.206c2.327-1.552,4.655-1.552,6.982-0.776L434.424,51.2c3.103,0.776,4.655,3.879,4.655,6.982
	s-2.327,6.206-4.655,6.982l-116.364,44.218C317.285,109.382,316.509,110.158,314.958,110.158z M322.715,25.6v65.164L409.6,58.182
	L322.715,25.6z"/>
<path style="fill:#FFFFFF;" d="M135.758,44.994c-2.327,0-4.655,0-6.982,0.776c-4.655-7.758-13.188-13.188-23.273-13.188
	c-3.103,0-6.206,0.776-9.309,1.552c-3.103-11.636-13.188-20.17-25.6-20.17c-14.739,0-27.152,11.636-27.152,27.152
	c0,1.552,0,2.327,0,3.879c-0.776,0-1.552,0-2.327,0c-14.739,0-27.152,11.636-27.152,27.152S25.6,99.297,41.115,99.297h93.867
	c14.739,0,27.152-11.636,27.152-27.152S150.497,44.994,135.758,44.994z"/>
<g>
	<path style="fill:#193651;" d="M135.758,106.279H41.115c-19.394,0-34.909-15.515-34.909-34.909
		c0-17.067,12.412-31.806,29.479-34.133c1.552-17.067,16.291-31.03,34.133-31.03c13.188,0,24.824,6.982,30.255,18.618
		c11.636-1.552,23.273,3.103,31.03,12.412c20.17-2.327,38.012,13.964,38.012,34.133C169.891,90.764,154.376,106.279,135.758,106.279
		z M41.115,52.752c-10.861,0-19.394,8.533-19.394,19.394c0,10.861,8.533,19.394,19.394,19.394h93.867
		c10.861,0,19.394-8.533,19.394-19.394c0-12.412-11.636-21.721-24.048-18.618c-3.103,0.776-6.982-0.776-8.533-3.879
		c-4.655-7.758-13.964-11.636-22.497-8.533c-2.327,0.776-4.655,0.776-6.206-0.776c-1.552-0.776-3.103-3.103-3.879-4.655
		c-2.327-8.533-10.085-13.964-18.618-13.964c-10.861,0-19.394,8.533-19.394,19.394c0,0.776,0,1.552,0,3.103
		c0,2.327-0.776,4.655-2.327,6.206c-0.776,1.552-3.103,2.327-5.43,2.327C42.667,52.752,41.891,52.752,41.115,52.752z"/>
	<rect x="93.867" y="413.479" style="fill:#193651;" width="15.515" height="14.739"/>
	<rect x="134.206" y="413.479" style="fill:#193651;" width="15.515" height="14.739"/>
	<rect x="175.321" y="413.479" style="fill:#193651;" width="15.515" height="14.739"/>
	<rect x="266.861" y="413.479" style="fill:#193651;" width="15.515" height="14.739"/>
	<rect x="307.2" y="413.479" style="fill:#193651;" width="15.515" height="14.739"/>
</g>
<rect x="348.315" y="413.479" style="fill:#193651;" width="15.515" height="14.739"/>
<g>
</g>
<g>
</g>
<g>
</g>
<g>
</g>
<g>
</g>
<g>
</g>
<g>
</g>
<g>
</g>
<g>
</g>
<g>
</g>
<g>
</g>
<g>
</g>
<g>
</g>
<g>
</g>
<g>
</g>
</svg>
