<svg height="512" viewBox="0 0 512 512" width="512" xmlns="http://www.w3.org/2000/svg"><g id="Filled"><g><g fill="#80daff"><path d="m153.9 488h-56.911a10 10 0 0 1 -8.66-15l56-97h80l-61.774 107a10 10 0 0 1 -8.655 5z"/><path d="m357.774 488h56.9a10 10 0 0 0 8.661-15l-56-97h-80l61.776 107a10 10 0 0 0 8.663 5z"/><circle cx="256" cy="256" r="184"/></g><circle cx="256" cy="256" fill="#fffcfc" r="128"/><g><path d="m403.92 147.892-117.99 117.19a10 10 0 0 1 -14.011.081l-15.919-15.448 124.956-124.108z" fill="#efe8d9"/><g fill="#fbd373"><path d="m386.867 142.491-11.991-45.08 55.713-57.411 11.992 45.08z"/><path d="m386.867 142.491 45.419 10.634 55.714-57.411-45.419-10.634z"/></g></g><g><path d="m108.08 147.892 117.99 117.19a10 10 0 0 0 14.011.081l15.919-15.448-124.956-124.108z" fill="#efe8d9"/><g fill="#fbd373"><path d="m125.133 142.491 11.991-45.08-55.713-57.411-11.992 45.08z"/><path d="m125.133 142.491-45.419 10.634-55.714-57.411 45.419-10.634z"/></g></g><g><path d="m272 120v144a16 16 0 0 1 -16 16 16 16 0 0 1 -16-16v-144z" fill="#efe8d9"/><g fill="#fbd373"><path d="m256 128-40-24v-80l40 24z"/><path d="m256 128 40-24v-80l-40 24z"/></g></g><g><path d="m448 256a192.541 192.541 0 0 0 -6.6-50.082l-15.449 4.164a176.535 176.535 0 0 1 6.049 45.918c0 97.047-78.953 176-176 176a175.885 175.885 0 0 1 -150.181-84.18l-13.642 8.36a192.922 192.922 0 0 0 31.749 39.164l-42.526 73.656a18 18 0 0 0 15.588 27h56.905a18.047 18.047 0 0 0 15.588-9l27.812-48.171a192.428 192.428 0 0 0 117.129.085l27.763 48.086a18.049 18.049 0 0 0 15.588 9h56.907a18 18 0 0 0 15.588-27l-42.45-73.524a191.489 191.489 0 0 0 60.182-139.476zm-292.374 223a2.005 2.005 0 0 1 -1.732 1h-56.9a2 2 0 0 1 -1.732-3l40.961-70.947a192.091 192.091 0 0 0 24.519 16.684 190.015 190.015 0 0 0 21.318 10.489zm260.785-2a2 2 0 0 1 -1.731 3h-56.907a2.005 2.005 0 0 1 -1.732-1l-26.38-45.691a192.169 192.169 0 0 0 45.855-27.144z"/><path d="m495.677 93.463a8 8 0 0 0 -5.854-5.539l-40.744-9.539-10.758-40.442a8 8 0 0 0 -13.472-3.514l-55.714 57.41a8 8 0 0 0 -2 7.58 191.544 191.544 0 0 0 -63.135-29.367v-46.052a8 8 0 0 0 -12.116-6.86l-35.884 21.53-35.884-21.53a8 8 0 0 0 -12.116 6.86v46.052a191.553 191.553 0 0 0 -63.132 29.367 8 8 0 0 0 -2-7.58l-55.717-57.41a8 8 0 0 0 -13.472 3.514l-10.758 40.442-40.744 9.539a8 8 0 0 0 -3.918 13.361l55.714 57.415a8 8 0 0 0 7.564 2.218l8.807-2.062a192.354 192.354 0 0 0 -7.291 180.631l14.4-6.966a176.267 176.267 0 0 1 11.182-172.794l29.165 28.961a135.633 135.633 0 0 0 -17.8 67.312c0 74.991 61.01 136 136 136s136-61.009 136-136a135.639 135.639 0 0 0 -17.8-67.312l29.161-28.964a175.2 175.2 0 0 1 17.705 35.058l15-5.565a190.956 190.956 0 0 0 -14.421-30.368l8.82 2.065a8 8 0 0 0 7.564-2.218l55.714-57.411a8 8 0 0 0 1.934-7.822zm-69.186-37.752 7.194 27.048-42.719 44.021-7.195-27.049zm-106.491 200.289a64 64 0 1 1 -126.822-12.312l27.255 27.069a17.947 17.947 0 0 0 12.686 5.194 18.255 18.255 0 0 0 2.01-.111 23.991 23.991 0 0 0 41.742 0 18.241 18.241 0 0 0 2.01.111 17.954 17.954 0 0 0 12.686-5.193l27.254-27.069a64.331 64.331 0 0 1 1.179 12.311zm-193.044-105.72a8 8 0 0 0 5.854-5.538c.019-.065.036-.13.054-.195l1.233-4.632 97.903 97.238v22.491a1.932 1.932 0 0 1 -.292-.239l-108.894-108.155zm105.044 64.32-11.763-11.682a64.038 64.038 0 0 1 11.763-6.264zm0-34.935a80.006 80.006 0 0 0 -23.289 11.8l-28.618-28.423a118.66 118.66 0 0 1 51.907-24.648zm48 16.99a64.244 64.244 0 0 1 11.762 6.264l-11.762 11.681zm23.289-5.185a80.177 80.177 0 0 0 -23.289-11.802v-41.268a118.807 118.807 0 0 1 51.9 24.654zm-23 67.935a1.987 1.987 0 0 1 -.292.238v-22.49l97.9-97.238 1.233 4.632a8 8 0 0 0 5.712 5.684c.065.018.13.033.2.049l4.142.97zm19.827-148.545a8 8 0 0 0 3.884-6.86v-17.375a175.91 175.91 0 0 1 67.782 36.818l-28.471 28.277a134.749 134.749 0 0 0 -62.263-29.42zm-12.116-11.389-24 14.4v-61.341l24-14.4zm-32 36.529a7.991 7.991 0 0 0 3.941-1.039c.059-.033.117-.067.175-.1l3.884-2.331v131.47a8 8 0 0 1 -16 0v-131.47l3.884 2.33a7.986 7.986 0 0 0 4.116 1.14zm-32-97.871 24 14.4v61.342l-24-14.4zm-12.116 72.731 19.067 11.44a134.589 134.589 0 0 0 -62.264 29.419l-28.469-28.276a175.909 175.909 0 0 1 67.782-36.818v17.375a8 8 0 0 0 3.884 6.86zm-126.375-55.149 42.719 44.02-7.194 27.048-42.719-44.02zm-45.928 44.571 27.251-6.382 42.72 44.02-27.252 6.38zm336.419 155.718a120 120 0 1 1 -226.382-55.577l30.47 30.264a80 80 0 1 0 151.824 0l30.47-30.263a119.719 119.719 0 0 1 13.618 55.576zm53.7-111.7-21.193-4.962-.164-.215-.176.135-5.718-1.339 42.72-44.02 27.251 6.38z"/></g></g></g></svg>